<?xml version="1.0" standalone="no"?>
<!DOCTYPE svg PUBLIC "-//W3C//DTD SVG 20010904//EN"
 "http://www.w3.org/TR/2001/REC-SVG-20010904/DTD/svg10.dtd">
<svg version="1.0" xmlns="http://www.w3.org/2000/svg"
 width="500.000000pt" height="500.000000pt" viewBox="0 0 500.000000 500.000000"
 preserveAspectRatio="xMidYMid meet">
<metadata>
Created by potrace 1.11, written by Peter Selinger 2001-2013
</metadata>
<g transform="translate(0.000000,500.000000) scale(0.100000,-0.100000)"
fill="#000000" stroke="none">
<path d="M730 2446 l0 -1126 140 0 140 0 0 465 0 465 269 0 269 0 304 -462
304 -463 162 -3 c89 -1 162 0 162 2 0 3 -139 217 -310 476 -170 259 -310 475
-310 479 0 4 19 13 43 20 92 28 200 94 272 166 117 118 175 269 175 452 -1
306 -183 535 -496 625 -77 21 -96 22 -601 26 l-523 3 0 -1125z m1043 850 c127
-35 206 -96 255 -195 25 -52 27 -65 27 -186 0 -127 -1 -132 -33 -197 -36 -74
-87 -124 -160 -158 -92 -43 -156 -50 -514 -50 l-338 0 0 406 0 406 353 -5
c283 -3 363 -8 410 -21z"/>
<path d="M2840 2445 l0 -1125 780 0 780 0 0 125 0 125 -645 0 -645 0 0 1000 0
1000 -135 0 -135 0 0 -1125z"/>
</g>
</svg>
